<?xml version="1.0" standalone="no"?>
<!DOCTYPE svg PUBLIC "-//W3C//DTD SVG 20010904//EN"
 "http://www.w3.org/TR/2001/REC-SVG-20010904/DTD/svg10.dtd">
<svg version="1.0" xmlns="http://www.w3.org/2000/svg"
 width="607.000000pt" height="1080.000000pt" viewBox="0 0 607.000000 1080.000000"
 preserveAspectRatio="xMidYMid meet">

<g transform="translate(0.000000,1080.000000) scale(0.100000,-0.100000)"
fill="#000000" stroke="none">
<path d="M0 5400 l0 -5400 3035 0 3035 0 0 5400 0 5400 -3035 0 -3035 0 0
-5400z m3145 1005 c80 -21 148 -60 216 -122 51 -48 61 -53 102 -53 67 0 144
-18 212 -51 l61 -28 -4 -41 -4 -41 76 7 76 7 31 -34 c16 -19 48 -60 70 -92
l40 -58 -1 -285 -1 -286 -38 -56 c-50 -73 -116 -138 -126 -123 -3 6 -11 9 -16
5 -5 -3 -57 2 -115 12 -93 16 -108 17 -131 4 -15 -8 -27 -23 -29 -33 -5 -34
-14 -31 -14 4 0 27 6 37 27 49 25 14 40 14 154 -4 l128 -19 35 31 c20 17 37
35 39 39 1 5 6 7 10 5 5 -1 6 1 3 6 -3 5 8 28 25 53 28 43 29 47 29 172 l0
128 -30 6 c-16 3 -30 8 -30 12 0 4 14 12 30 18 l30 11 0 114 c0 109 -1 116
-29 160 -16 25 -47 65 -67 88 l-38 42 -66 -6 c-36 -4 -75 -9 -87 -12 -21 -6
-22 -4 -16 48 l5 54 -49 22 c-68 29 -127 41 -197 42 -57 0 -61 2 -103 45 -182
191 -500 195 -701 11 -57 -53 -57 -53 -150 -65 -52 -6 -123 -21 -159 -33 l-65
-22 5 -53 c6 -60 11 -58 -81 -43 -72 12 -64 17 -147 -96 l-45 -62 0 -119 0
-119 33 -13 32 -13 -32 -11 -33 -10 0 -126 c0 -123 1 -128 29 -173 16 -25 45
-64 65 -86 20 -21 32 -43 28 -47 -4 -5 -2 -5 4 -2 6 4 68 16 138 27 121 19
129 19 157 3 23 -14 29 -24 29 -50 0 -18 -4 -33 -10 -33 -5 0 -7 13 -5 30 2
19 -1 29 -8 27 -7 -1 -11 3 -10 9 2 13 -45 10 -190 -12 l-101 -15 -38 38 c-21
20 -56 64 -78 97 l-40 59 0 271 c0 307 -6 279 92 402 l52 64 64 -6 64 -7 -4
43 c-4 41 -3 43 37 60 53 23 155 47 235 56 61 6 69 10 122 59 98 91 211 133
358 134 47 1 112 -6 145 -14z m38 -113 c50 -22 127 -78 127 -91 0 -4 -28 -16
-62 -25 -87 -24 -151 -61 -203 -117 l-45 -48 -41 44 c-44 48 -172 119 -235
131 -34 6 -35 7 -17 26 25 27 97 69 158 91 73 26 251 20 318 -11z m223 -158
c-9 -8 -16 -19 -16 -24 0 -5 -19 -14 -42 -21 -58 -15 -135 -55 -183 -95 -31
-24 -47 -31 -67 -27 -16 3 -28 11 -28 18 0 47 229 163 323 165 26 0 27 -1 13
-16z m152 5 c12 0 10 -3 -6 -10 -25 -10 -42 -5 -42 13 0 5 7 7 16 4 9 -3 23
-6 32 -7z m-1077 -13 c-7 -8 -22 -11 -39 -8 l-27 6 25 7 c43 12 54 11 41 -5z
m260 -27 c81 -31 179 -99 179 -123 0 -8 -12 -17 -26 -20 -20 -5 -33 0 -62 25
-36 32 -152 91 -203 104 -15 4 -32 18 -38 32 l-12 26 42 -7 c22 -4 77 -20 120
-37z m376 -215 c28 -15 66 -41 84 -60 l32 -33 -34 -14 c-19 -8 -55 -33 -81
-56 -26 -23 -52 -40 -58 -36 -21 13 -10 57 25 92 19 19 35 37 35 38 0 2 -13
-1 -30 -6 -45 -16 -80 -63 -80 -109 0 -44 15 -60 68 -71 20 -4 47 -11 60 -14
18 -6 21 -4 16 8 -3 9 -14 19 -25 22 -26 9 -24 19 11 48 17 14 30 30 30 35 0
6 10 10 23 10 12 0 32 3 43 7 19 6 23 1 34 -44 6 -27 8 -55 4 -62 -5 -9 0 -10
19 -5 20 5 29 2 37 -13 8 -16 5 -23 -19 -41 -47 -32 -89 -47 -182 -60 -95 -14
-289 -9 -350 9 -80 24 -124 73 -99 111 7 12 12 12 22 2 18 -18 25 -15 23 11
-1 12 0 27 4 32 3 6 6 16 7 23 6 35 14 43 36 36 13 -4 31 -7 41 -6 9 0 17 -4
17 -9 0 -6 14 -22 30 -36 36 -30 37 -41 8 -52 -43 -17 6 -24 59 -9 88 25 95
99 14 154 -50 34 -58 30 -22 -11 32 -37 42 -85 18 -85 -8 0 -22 9 -33 21 -10
12 -40 32 -66 45 -26 13 -49 28 -53 33 -12 20 85 90 155 112 54 16 123 10 177
-17z m-942 -34 c80 -26 79 -25 71 -39 -4 -7 -32 -1 -79 15 -81 29 -93 37 -82
54 5 7 10 8 14 3 3 -6 38 -20 76 -33z m1680 -15 c-51 -22 -82 -26 -40 -5 22
11 47 19 55 19 8 0 2 -6 -15 -14z m-1520 -32 c-17 -14 -38 -36 -47 -47 -10
-12 -18 -18 -18 -14 0 13 71 88 84 88 6 0 -3 -12 -19 -27z m1340 -13 c21 -22
37 -42 34 -44 -2 -3 -24 15 -49 40 -24 24 -39 44 -34 44 5 0 27 -18 49 -40z
m-1287 -78 c-15 -15 -28 -38 -31 -52 l-4 -25 -2 27 c-1 26 46 95 57 83 3 -3
-6 -18 -20 -33z m1241 -50 l-1 -27 -9 31 c-5 17 -18 39 -29 49 -11 10 -20 23
-20 29 0 6 14 -4 30 -22 19 -20 30 -42 29 -60z m-1164 -24 c-8 -37 -12 -44
-21 -35 -9 9 6 67 18 67 6 0 7 -13 3 -32z m1069 7 c4 -14 2 -33 -3 -43 -9 -15
-10 -15 -11 3 0 11 -3 30 -6 43 -4 12 -2 22 4 22 5 0 13 -11 16 -25z m-1321
-74 c-4 -32 -1 -51 6 -56 18 -11 56 2 90 30 l30 26 11 -40 c6 -22 18 -45 28
-50 18 -10 16 -11 -127 -31 -66 -9 -76 -9 -94 7 -24 22 -77 98 -77 111 0 10
100 49 127 51 9 1 10 -13 6 -48z m562 -107 c71 -25 94 -28 210 -29 145 0 232
20 334 76 29 17 54 29 55 27 1 -2 7 -16 14 -33 11 -28 11 -28 -3 -11 -8 11
-15 15 -15 9 0 -7 6 -18 14 -25 7 -8 16 -23 20 -35 8 -25 36 -34 60 -21 10 6
20 8 22 5 3 -2 -11 -12 -31 -21 -19 -9 -35 -19 -35 -21 0 -2 14 -33 30 -70 17
-37 30 -70 30 -74 0 -8 -179 -51 -217 -51 -22 0 -43 14 -88 60 l-59 60 -116 0
-115 0 -65 -60 c-36 -33 -73 -60 -82 -60 -36 0 -218 43 -218 52 0 4 11 36 25
70 14 34 25 65 25 69 0 3 -24 18 -52 33 -29 14 -63 34 -75 43 l-22 18 24 22
25 22 15 -30 c21 -39 55 -39 89 2 14 17 26 37 26 45 0 10 14 5 48 -15 26 -16
83 -42 127 -57z m924 15 c79 -13 111 -35 39 -25 -122 16 -137 19 -132 27 7 11
14 11 93 -2z m-139 -14 c0 -2 -10 -9 -22 -15 -22 -11 -22 -10 -4 4 21 17 26
19 26 11z m1110 -385 c0 -5 -221 -9 -565 -9 -441 0 -563 2 -559 12 5 15 1124
13 1124 -3z m-3203 -12 c-3 -8 -6 -5 -6 6 -1 11 2 17 5 13 3 -3 4 -12 1 -19z
m33 18 c0 -3 -4 -8 -10 -11 -5 -3 -10 -1 -10 4 0 6 5 11 10 11 6 0 10 -2 10
-4z m475 -6 c-247 -3 -454 -2 -459 3 -6 4 197 6 450 5 l459 -3 -450 -5z m1245
-115 c14 -15 35 -25 51 -25 29 0 39 -19 39 -77 l0 -33 -64 0 -65 0 -3 43 c-3
37 -6 42 -29 45 -19 2 -28 -2 -32 -17 -7 -28 12 -50 87 -101 87 -59 117 -112
95 -174 -19 -55 -61 -78 -143 -78 -76 0 -131 16 -151 45 -9 13 -15 44 -15 75
l0 53 63 -3 62 -3 0 -43 c0 -58 33 -80 59 -40 17 28 -9 64 -84 114 -76 50
-100 83 -100 137 0 66 57 105 156 106 42 1 55 -3 74 -24z m726 -6 c19 -11 38
-28 43 -37 5 -10 11 -92 13 -184 3 -164 3 -167 -21 -192 -72 -77 -228 -49
-272 48 -15 32 -19 66 -19 159 0 124 10 167 48 200 46 42 146 45 208 6z
m-2231 9 c6 -18 66 -500 63 -504 -7 -6 -109 -21 -112 -15 -2 3 -7 32 -11 64
-7 54 -9 57 -36 57 -35 0 -42 -10 -54 -84 l-10 -60 -47 -12 c-40 -10 -48 -10
-48 2 0 7 14 100 30 206 17 106 35 225 41 263 15 101 8 95 99 95 56 0 82 -4
85 -12z m212 -161 c6 -93 13 -173 16 -180 2 -6 13 61 26 149 31 224 22 204 92
204 57 0 59 -1 54 -22 -3 -13 -25 -122 -48 -243 l-43 -220 -79 -12 c-43 -7
-81 -10 -83 -8 -4 3 -82 480 -82 498 0 4 30 7 68 5 l67 -3 12 -168z m510 141
c-3 -31 -6 -33 -45 -36 l-42 -3 0 -184 c0 -209 2 -205 -84 -205 l-46 0 0 195
0 195 -45 0 c-45 0 -45 0 -45 35 l0 35 156 0 155 0 -4 -32z m247 3 c60 -12 81
-21 87 -36 4 -11 8 -76 8 -143 1 -149 -10 -181 -73 -212 -51 -24 -144 -27
-186 -5 -50 26 -60 59 -60 200 0 141 10 178 58 208 18 12 37 15 57 11 17 -3
66 -14 109 -23z m776 -20 c0 -27 3 -63 6 -80 6 -26 11 -31 35 -31 l29 0 0 80
0 80 65 0 65 0 0 -225 0 -225 -49 0 c-82 0 -81 -1 -81 116 l0 104 -30 0 -30 0
0 -99 c0 -61 -4 -102 -11 -106 -6 -4 -35 -4 -65 0 l-54 6 2 201 3 201 40 13
c71 22 75 20 75 -35z m705 -78 c13 -228 18 -238 38 -78 10 77 20 155 24 173
l5 32 69 0 c59 0 69 -3 69 -17 0 -17 29 -333 31 -343 1 -6 37 316 38 343 1 14
11 17 56 17 46 0 55 -3 55 -17 0 -22 -61 -524 -65 -539 -3 -9 -22 -8 -71 2
-37 8 -70 17 -73 19 -2 3 -14 89 -27 191 -12 102 -24 187 -26 190 -3 2 -13
-79 -23 -182 l-19 -185 -65 7 c-36 3 -70 10 -74 14 -8 7 -76 439 -77 483 0 14
10 17 64 17 l64 0 7 -127z"/>
<path d="M3020 4633 c-1 -61 173 -85 226 -31 l25 24 -28 0 c-15 0 -35 -8 -45
-18 -24 -24 -82 -24 -106 0 -25 25 -52 35 -52 19 0 -8 -4 -6 -10 3 -6 9 -10
10 -10 3z"/>
<path d="M3820 4901 c-5 -11 -10 -82 -10 -160 0 -114 3 -142 16 -155 19 -20
38 -20 53 -2 15 18 3 318 -13 328 -19 13 -35 9 -46 -11z"/>
<path d="M3743 4597 c-9 -15 40 -57 81 -68 65 -18 136 13 136 59 0 5 -11 12
-25 14 -15 3 -25 1 -25 -7 0 -20 -35 -45 -62 -45 -25 0 -58 27 -58 48 0 12
-39 12 -47 -1z"/>
<path d="M1611 4879 c0 -9 -6 -62 -11 -118 -6 -56 -8 -106 -5 -110 3 -5 14 -7
25 -4 18 5 19 11 13 82 -7 84 -20 175 -22 150z"/>
<path d="M1507 4547 c-3 -12 -9 -43 -12 -69 -7 -43 -6 -46 13 -41 20 5 32 39
32 93 0 35 -26 48 -33 17z"/>
<path d="M1687 4522 c2 -26 6 -48 8 -50 9 -10 55 13 54 27 -3 43 -15 64 -41
67 -26 2 -26 1 -21 -44z"/>
<path d="M1877 4593 c-2 -5 -2 -25 1 -47 l4 -38 56 6 c31 4 58 8 59 10 2 2 6
19 9 38 5 29 3 34 -15 34 -12 0 -21 -6 -21 -13 0 -18 -49 -16 -56 2 -6 16 -30
20 -37 8z"/>
<path d="M2266 4618 c-9 -5 -16 -20 -16 -33 0 -21 5 -25 30 -25 27 0 30 3 30
33 0 35 -13 42 -44 25z"/>
<path d="M2597 4914 c-4 -4 -7 -74 -7 -156 l0 -149 28 3 27 3 0 150 c0 143 -1
150 -20 153 -12 2 -24 0 -28 -4z"/>
<path d="M2512 4604 c25 -54 141 -58 201 -6 40 35 -4 41 -46 6 -36 -30 -66
-30 -97 -1 -14 12 -34 22 -46 22 -19 1 -20 -2 -12 -21z"/>
<path d="M3370 4600 c0 -28 3 -30 35 -30 32 0 35 3 35 28 0 25 -4 28 -35 30
-33 2 -35 1 -35 -28z"/>
<path d="M3560 4593 c0 -31 2 -33 35 -33 32 0 35 3 35 29 0 25 -4 29 -35 33
-34 4 -35 3 -35 -29z"/>
<path d="M4120 4544 c0 -39 2 -42 31 -48 65 -13 69 -10 69 42 l0 47 -50 1 -50
0 0 -42z"/>
<path d="M4426 4563 c-4 -8 -14 -9 -35 -3 -16 4 -31 7 -33 5 -2 -2 -1 -26 0
-53 l4 -50 45 -7 c25 -3 48 -4 51 -1 3 4 8 32 10 64 4 53 2 58 -17 58 -11 0
-23 -6 -25 -13z"/>
</g>
</svg>
